<?xml version="1.0" encoding="UTF-8" standalone="no"?>
<!DOCTYPE svg PUBLIC "-//W3C//DTD SVG 1.1//EN" "http://www.w3.org/Graphics/SVG/1.1/DTD/svg11.dtd">
<svg width="100%" height="100%" viewBox="0 0 350 367" version="1.1" xmlns="http://www.w3.org/2000/svg" xmlns:xlink="http://www.w3.org/1999/xlink" xml:space="preserve" xmlns:serif="http://www.serif.com/" style="fill-rule:evenodd;clip-rule:evenodd;stroke-linejoin:round;stroke-miterlimit:1.41421;">
    <g transform="matrix(1,0,0,1,-3713,-295)">
        <g transform="matrix(3.66857,0,0,3.6864,3576.09,187.074)">
            <path d="M85.507,29.377C86.8,29.466 87.543,29.509 89.328,30.551L129.094,55.551C131.26,57.01 132.582,59.377 132.665,62L132.665,121C132.614,122.533 132.485,122.787 132.258,123.452C131.345,126.129 128.843,128.19 126,128.562C125.558,128.62 125.445,128.613 125,128.628L99.868,128.628C98.327,128.577 98.072,128.449 97.404,128.223C94.714,127.314 92.643,124.824 92.269,121.996C92.211,121.555 92.218,121.443 92.203,121L92.203,105.628L75.697,105.628L75.697,121C75.646,122.533 75.517,122.787 75.29,123.452C74.377,126.129 71.875,128.19 69.032,128.562C68.59,128.62 68.477,128.613 68.032,128.628L45,128.628C43.459,128.577 43.204,128.449 42.536,128.223C39.846,127.314 37.775,124.824 37.401,121.996C37.343,121.555 37.35,121.443 37.335,121L37.335,62C37.418,59.385 38.738,56.997 40.941,55.53L81.175,30.53C83.743,29.049 83.401,29.372 85.507,29.377ZM45,62L45,121L68.032,121L68.032,98L99.868,98L99.868,121L125,121L125,62L85.234,37C71.823,45.333 58.411,53.667 45,62Z" style="fill:#fff;fill-rule:nonzero;"/>
        </g>
    </g>
</svg>
