<svg id="Layer_1" data-name="Layer 1" xmlns="http://www.w3.org/2000/svg" viewBox="0 0 100 100" style="fill: #FFF;">
    <title>jdb THB icon</title>
    <rect x="27.59" y="41.7" width="47.55" height="19.32" transform="translate(-21.28 51.36) rotate(-45)"/>
    <rect x="67.94" y="21.78" width="6.69" height="19.32" transform="translate(-1.35 59.61) rotate(-45)"/>
    <polygon points="24.86 77.87 40.54 75.85 26.88 62.19 24.86 77.87"/>
    <path d="M95.51,40.7a46.23,46.23,0,0,0-4.67-12.78,46.88,46.88,0,0,0-21.22-20A46.18,46.18,0,0,0,57.07,4.14a48.86,48.86,0,0,0-6.47-.53H48.8a48.79,48.79,0,0,0-6.45.61,46.22,46.22,0,0,0-12.49,4A46.89,46.89,0,0,0,8.13,29.93a46.2,46.2,0,0,0-4,12.49,46.84,46.84,0,0,0-.09,14.72,46.22,46.22,0,0,0,4.3,13.57,46.48,46.48,0,0,0,83.73-1,46.23,46.23,0,0,0,4-13.71A46.82,46.82,0,0,0,95.51,40.7ZM89.75,56.18A40,40,0,0,1,86,67.91a40.24,40.24,0,0,1-75-7.81A40.64,40.64,0,0,1,10,45.94a39.89,39.89,0,0,1,2.95-11.52A40.45,40.45,0,0,1,33,13.6a39.94,39.94,0,0,1,10.36-3.21,42.11,42.11,0,0,1,6.1-.54q1,0,2.08,0a42.06,42.06,0,0,1,5.56.6A40,40,0,0,1,67.86,14,40.65,40.65,0,0,1,86.25,32.64a39.86,39.86,0,0,1,3.34,10.3A40.56,40.56,0,0,1,89.75,56.18Z"/>
</svg>