<?xml version="1.0" encoding="UTF-8" standalone="no"?>
<!DOCTYPE svg PUBLIC "-//W3C//DTD SVG 1.1//EN" "http://www.w3.org/Graphics/SVG/1.1/DTD/svg11.dtd">
<svg width="100%" height="100%" viewBox="0 0 233 239" version="1.1" xmlns="http://www.w3.org/2000/svg" xmlns:xlink="http://www.w3.org/1999/xlink" xml:space="preserve" xmlns:serif="http://www.serif.com/" style="fill-rule:evenodd;clip-rule:evenodd;stroke-linejoin:round;stroke-miterlimit:1.41421;">
    <g transform="matrix(1,0,0,1,-4417,-844)">
        <g transform="matrix(1.87507,0,0,1.87538,4292.69,164.175)">
            <g transform="matrix(1,0,0,0.999831,7.78576,-2882.34)">
                <path d="M95.642,3248.87C95.642,3247.23 94.314,3245.9 92.677,3245.9L61.548,3245.9C59.912,3245.9 58.584,3247.23 58.584,3248.87L58.584,3280C58.584,3281.63 59.912,3282.96 61.548,3282.96L92.677,3282.96C94.314,3282.96 95.642,3281.63 95.642,3280L95.642,3248.87Z" style="fill:#fff;"/>
            </g>
            <g transform="matrix(1,0,0,0.999831,7.78576,-2837.64)">
                <path d="M95.642,3248.87C95.642,3247.23 94.314,3245.9 92.677,3245.9L61.548,3245.9C59.912,3245.9 58.584,3247.23 58.584,3248.87L58.584,3280C58.584,3281.63 59.912,3282.96 61.548,3282.96L92.677,3282.96C94.314,3282.96 95.642,3281.63 95.642,3280L95.642,3248.87Z" style="fill:#fff;"/>
            </g>
            <g transform="matrix(1,0,0,0.999831,7.78576,-2792.94)">
                <path d="M95.642,3248.87C95.642,3247.23 94.314,3245.9 92.677,3245.9L61.548,3245.9C59.912,3245.9 58.584,3247.23 58.584,3248.87L58.584,3280C58.584,3281.63 59.912,3282.96 61.548,3282.96L92.677,3282.96C94.314,3282.96 95.642,3281.63 95.642,3280L95.642,3248.87Z" style="fill:#fff;"/>
            </g>
            <g transform="matrix(1,0,0,0.999831,51.2353,-2882.34)">
                <path d="M95.642,3248.87C95.642,3247.23 94.314,3245.9 92.677,3245.9L61.548,3245.9C59.912,3245.9 58.584,3247.23 58.584,3248.87L58.584,3280C58.584,3281.63 59.912,3282.96 61.548,3282.96L92.677,3282.96C94.314,3282.96 95.642,3281.63 95.642,3280L95.642,3248.87Z" style="fill:#fff;"/>
            </g>
            <g transform="matrix(1,0,0,0.999831,51.2353,-2837.64)">
                <path d="M95.642,3248.87C95.642,3247.23 94.314,3245.9 92.677,3245.9L61.548,3245.9C59.912,3245.9 58.584,3247.23 58.584,3248.87L58.584,3280C58.584,3281.63 59.912,3282.96 61.548,3282.96L92.677,3282.96C94.314,3282.96 95.642,3281.63 95.642,3280L95.642,3248.87Z" style="fill:#fff;"/>
            </g>
            <g transform="matrix(1,0,0,0.999831,51.2353,-2792.94)">
                <path d="M95.642,3248.87C95.642,3247.23 94.314,3245.9 92.677,3245.9L61.548,3245.9C59.912,3245.9 58.584,3247.23 58.584,3248.87L58.584,3280C58.584,3281.63 59.912,3282.96 61.548,3282.96L92.677,3282.96C94.314,3282.96 95.642,3281.63 95.642,3280L95.642,3248.87Z" style="fill:#fff;"/>
            </g>
            <g transform="matrix(1,0,0,0.999831,94.6849,-2882.34)">
                <path d="M95.642,3248.87C95.642,3247.23 94.314,3245.9 92.677,3245.9L61.548,3245.9C59.912,3245.9 58.584,3247.23 58.584,3248.87L58.584,3280C58.584,3281.63 59.912,3282.96 61.548,3282.96L92.677,3282.96C94.314,3282.96 95.642,3281.63 95.642,3280L95.642,3248.87Z" style="fill:#fff;"/>
            </g>
            <g transform="matrix(1,0,0,0.999831,94.6849,-2837.64)">
                <path d="M95.642,3248.87C95.642,3247.23 94.314,3245.9 92.677,3245.9L61.548,3245.9C59.912,3245.9 58.584,3247.23 58.584,3248.87L58.584,3280C58.584,3281.63 59.912,3282.96 61.548,3282.96L92.677,3282.96C94.314,3282.96 95.642,3281.63 95.642,3280L95.642,3248.87Z" style="fill:#fff;"/>
            </g>
            <g transform="matrix(1,0,0,0.999831,94.6849,-2792.94)">
                <path d="M95.642,3248.87C95.642,3247.23 94.314,3245.9 92.677,3245.9L61.548,3245.9C59.912,3245.9 58.584,3247.23 58.584,3248.87L58.584,3280C58.584,3281.63 59.912,3282.96 61.548,3282.96L92.677,3282.96C94.314,3282.96 95.642,3281.63 95.642,3280L95.642,3248.87Z" style="fill:#fff;"/>
            </g>
        </g>
    </g>
</svg>
